<svg xmlns="http://www.w3.org/2000/svg" xmlns:xlink="http://www.w3.org/1999/xlink" width="40" zoomAndPan="magnify" viewBox="0 0 30 30.000001" height="40" preserveAspectRatio="xMidYMid meet" version="1.0"><defs><g/><clipPath id="0a9cbda6e6"><path d="M 5.753906 2 L 25 2 L 25 21 L 5.753906 21 Z M 5.753906 2 " clip-rule="nonzero"/></clipPath><clipPath id="8ff814ff16"><path d="M 12 20 L 15 20 L 15 21.425781 L 12 21.425781 Z M 12 20 " clip-rule="nonzero"/></clipPath><clipPath id="22e17c0d18"><path d="M 14 1.828125 L 16 1.828125 L 16 2 L 14 2 Z M 14 1.828125 " clip-rule="nonzero"/></clipPath><clipPath id="1f181d389b"><path d="M 10.578125 1.828125 L 25.820312 1.828125 L 25.820312 21.425781 L 10.578125 21.425781 Z M 10.578125 1.828125 " clip-rule="nonzero"/></clipPath><clipPath id="a941f0547e"><path d="M 18 0 L 20 0 L 20 1 L 18 1 Z M 18 0 " clip-rule="nonzero"/></clipPath><clipPath id="0ce688a353"><path d="M 20.050781 0.820312 L 17.324219 1.824219 L 16.570312 -0.21875 L 19.296875 -1.222656 Z M 20.050781 0.820312 " clip-rule="nonzero"/></clipPath><clipPath id="e954f83547"><path d="M 20.050781 0.820312 L 17.324219 1.824219 L 16.570312 -0.21875 L 19.296875 -1.222656 Z M 20.050781 0.820312 " clip-rule="nonzero"/></clipPath><clipPath id="5aec8ce254"><path d="M 17 0 L 18 0 L 18 1 L 17 1 Z M 17 0 " clip-rule="nonzero"/></clipPath><clipPath id="6e4f985185"><path d="M 20.050781 0.820312 L 17.324219 1.824219 L 16.570312 -0.21875 L 19.296875 -1.222656 Z M 20.050781 0.820312 " clip-rule="nonzero"/></clipPath><clipPath id="f3e038c3f1"><path d="M 20.050781 0.820312 L 17.324219 1.824219 L 16.570312 -0.21875 L 19.296875 -1.222656 Z M 20.050781 0.820312 " clip-rule="nonzero"/></clipPath><clipPath id="58a58f2143"><path d="M 17 0 L 19 0 L 19 1 L 17 1 Z M 17 0 " clip-rule="nonzero"/></clipPath><clipPath id="e7ab99e25c"><path d="M 20.050781 0.820312 L 17.324219 1.824219 L 16.570312 -0.21875 L 19.296875 -1.222656 Z M 20.050781 0.820312 " clip-rule="nonzero"/></clipPath><clipPath id="ae3ebb7555"><path d="M 20.050781 0.820312 L 17.324219 1.824219 L 16.570312 -0.21875 L 19.296875 -1.222656 Z M 20.050781 0.820312 " clip-rule="nonzero"/></clipPath><clipPath id="c45ccf1076"><path d="M 18 0 L 20 0 L 20 1 L 18 1 Z M 18 0 " clip-rule="nonzero"/></clipPath><clipPath id="8d7f1af665"><path d="M 20.050781 0.820312 L 17.324219 1.824219 L 16.570312 -0.21875 L 19.296875 -1.222656 Z M 20.050781 0.820312 " clip-rule="nonzero"/></clipPath><clipPath id="a819f35837"><path d="M 20.050781 0.820312 L 17.324219 1.824219 L 16.570312 -0.21875 L 19.296875 -1.222656 Z M 20.050781 0.820312 " clip-rule="nonzero"/></clipPath><clipPath id="884cd6d1ff"><path d="M 17 0 L 19 0 L 19 1 L 17 1 Z M 17 0 " clip-rule="nonzero"/></clipPath><clipPath id="71575437ab"><path d="M 20.050781 0.820312 L 17.324219 1.824219 L 16.570312 -0.21875 L 19.296875 -1.222656 Z M 20.050781 0.820312 " clip-rule="nonzero"/></clipPath><clipPath id="fce1aa27ea"><path d="M 20.050781 0.820312 L 17.324219 1.824219 L 16.570312 -0.21875 L 19.296875 -1.222656 Z M 20.050781 0.820312 " clip-rule="nonzero"/></clipPath><clipPath id="ba9d7a850d"><path d="M 18 0 L 20 0 L 20 1 L 18 1 Z M 18 0 " clip-rule="nonzero"/></clipPath><clipPath id="0d58f750af"><path d="M 20.050781 0.820312 L 17.324219 1.824219 L 16.570312 -0.21875 L 19.296875 -1.222656 Z M 20.050781 0.820312 " clip-rule="nonzero"/></clipPath><clipPath id="2753f217b4"><path d="M 20.050781 0.820312 L 17.324219 1.824219 L 16.570312 -0.21875 L 19.296875 -1.222656 Z M 20.050781 0.820312 " clip-rule="nonzero"/></clipPath><clipPath id="e235f0f94f"><path d="M 18 0 L 19 0 L 19 1 L 18 1 Z M 18 0 " clip-rule="nonzero"/></clipPath><clipPath id="d7ed535862"><path d="M 20.050781 0.820312 L 17.324219 1.824219 L 16.570312 -0.21875 L 19.296875 -1.222656 Z M 20.050781 0.820312 " clip-rule="nonzero"/></clipPath><clipPath id="f3ea64fb65"><path d="M 20.050781 0.820312 L 17.324219 1.824219 L 16.570312 -0.21875 L 19.296875 -1.222656 Z M 20.050781 0.820312 " clip-rule="nonzero"/></clipPath><clipPath id="705b1214e6"><path d="M 18 0 L 20 0 L 20 1 L 18 1 Z M 18 0 " clip-rule="nonzero"/></clipPath><clipPath id="4bc2f0ced8"><path d="M 20.050781 0.820312 L 17.324219 1.824219 L 16.570312 -0.21875 L 19.296875 -1.222656 Z M 20.050781 0.820312 " clip-rule="nonzero"/></clipPath><clipPath id="d2952d0286"><path d="M 20.050781 0.820312 L 17.324219 1.824219 L 16.570312 -0.21875 L 19.296875 -1.222656 Z M 20.050781 0.820312 " clip-rule="nonzero"/></clipPath><clipPath id="3a236139d7"><path d="M 17 0 L 19 0 L 19 1 L 17 1 Z M 17 0 " clip-rule="nonzero"/></clipPath><clipPath id="65ae3df5d6"><path d="M 20.050781 0.820312 L 17.324219 1.824219 L 16.570312 -0.21875 L 19.296875 -1.222656 Z M 20.050781 0.820312 " clip-rule="nonzero"/></clipPath><clipPath id="b353d5ac6a"><path d="M 20.050781 0.820312 L 17.324219 1.824219 L 16.570312 -0.21875 L 19.296875 -1.222656 Z M 20.050781 0.820312 " clip-rule="nonzero"/></clipPath><clipPath id="0994d6ea76"><path d="M 18 0 L 20 0 L 20 1 L 18 1 Z M 18 0 " clip-rule="nonzero"/></clipPath><clipPath id="0322b90827"><path d="M 20.050781 0.820312 L 17.324219 1.824219 L 16.570312 -0.21875 L 19.296875 -1.222656 Z M 20.050781 0.820312 " clip-rule="nonzero"/></clipPath><clipPath id="8e6485f574"><path d="M 20.050781 0.820312 L 17.324219 1.824219 L 16.570312 -0.21875 L 19.296875 -1.222656 Z M 20.050781 0.820312 " clip-rule="nonzero"/></clipPath><clipPath id="d32875ffe1"><path d="M 18 0 L 20 0 L 20 2 L 18 2 Z M 18 0 " clip-rule="nonzero"/></clipPath><clipPath id="6944fbfc03"><path d="M 20.050781 0.820312 L 17.324219 1.824219 L 16.570312 -0.21875 L 19.296875 -1.222656 Z M 20.050781 0.820312 " clip-rule="nonzero"/></clipPath><clipPath id="0b67af9526"><path d="M 20.050781 0.820312 L 17.324219 1.824219 L 16.570312 -0.21875 L 19.296875 -1.222656 Z M 20.050781 0.820312 " clip-rule="nonzero"/></clipPath><clipPath id="ec6a2214e6"><path d="M 17 0 L 18 0 L 18 2 L 17 2 Z M 17 0 " clip-rule="nonzero"/></clipPath><clipPath id="e4c15f32f5"><path d="M 20.050781 0.820312 L 17.324219 1.824219 L 16.570312 -0.21875 L 19.296875 -1.222656 Z M 20.050781 0.820312 " clip-rule="nonzero"/></clipPath><clipPath id="5effb0d1b5"><path d="M 20.050781 0.820312 L 17.324219 1.824219 L 16.570312 -0.21875 L 19.296875 -1.222656 Z M 20.050781 0.820312 " clip-rule="nonzero"/></clipPath><clipPath id="7811a349f8"><path d="M 17 0 L 19 0 L 19 2 L 17 2 Z M 17 0 " clip-rule="nonzero"/></clipPath><clipPath id="bcc369f6e2"><path d="M 20.050781 0.820312 L 17.324219 1.824219 L 16.570312 -0.21875 L 19.296875 -1.222656 Z M 20.050781 0.820312 " clip-rule="nonzero"/></clipPath><clipPath id="db0d5d3712"><path d="M 20.050781 0.820312 L 17.324219 1.824219 L 16.570312 -0.21875 L 19.296875 -1.222656 Z M 20.050781 0.820312 " clip-rule="nonzero"/></clipPath><clipPath id="f37e9f424c"><path d="M 18 0 L 19 0 L 19 2 L 18 2 Z M 18 0 " clip-rule="nonzero"/></clipPath><clipPath id="8894a48e65"><path d="M 20.050781 0.820312 L 17.324219 1.824219 L 16.570312 -0.21875 L 19.296875 -1.222656 Z M 20.050781 0.820312 " clip-rule="nonzero"/></clipPath><clipPath id="ba3c654c85"><path d="M 20.050781 0.820312 L 17.324219 1.824219 L 16.570312 -0.21875 L 19.296875 -1.222656 Z M 20.050781 0.820312 " clip-rule="nonzero"/></clipPath><clipPath id="510bd96da1"><path d="M 17 0 L 19 0 L 19 2 L 17 2 Z M 17 0 " clip-rule="nonzero"/></clipPath><clipPath id="2522bc6602"><path d="M 20.050781 0.820312 L 17.324219 1.824219 L 16.570312 -0.21875 L 19.296875 -1.222656 Z M 20.050781 0.820312 " clip-rule="nonzero"/></clipPath><clipPath id="73f077db06"><path d="M 20.050781 0.820312 L 17.324219 1.824219 L 16.570312 -0.21875 L 19.296875 -1.222656 Z M 20.050781 0.820312 " clip-rule="nonzero"/></clipPath><clipPath id="06f6c4742f"><path d="M 17 1 L 18 1 L 18 2 L 17 2 Z M 17 1 " clip-rule="nonzero"/></clipPath><clipPath id="c4636ffc2f"><path d="M 20.050781 0.820312 L 17.324219 1.824219 L 16.570312 -0.21875 L 19.296875 -1.222656 Z M 20.050781 0.820312 " clip-rule="nonzero"/></clipPath><clipPath id="04fbccd9e1"><path d="M 20.050781 0.820312 L 17.324219 1.824219 L 16.570312 -0.21875 L 19.296875 -1.222656 Z M 20.050781 0.820312 " clip-rule="nonzero"/></clipPath><clipPath id="8753f25eba"><path d="M 17 0 L 19 0 L 19 2 L 17 2 Z M 17 0 " clip-rule="nonzero"/></clipPath><clipPath id="8679b721f7"><path d="M 20.050781 0.820312 L 17.324219 1.824219 L 16.570312 -0.21875 L 19.296875 -1.222656 Z M 20.050781 0.820312 " clip-rule="nonzero"/></clipPath><clipPath id="884de80460"><path d="M 20.050781 0.820312 L 17.324219 1.824219 L 16.570312 -0.21875 L 19.296875 -1.222656 Z M 20.050781 0.820312 " clip-rule="nonzero"/></clipPath><clipPath id="add40ab538"><path d="M 17 0 L 18 0 L 18 2 L 17 2 Z M 17 0 " clip-rule="nonzero"/></clipPath><clipPath id="dc017472c7"><path d="M 20.050781 0.820312 L 17.324219 1.824219 L 16.570312 -0.21875 L 19.296875 -1.222656 Z M 20.050781 0.820312 " clip-rule="nonzero"/></clipPath><clipPath id="f99f9ec63e"><path d="M 20.050781 0.820312 L 17.324219 1.824219 L 16.570312 -0.21875 L 19.296875 -1.222656 Z M 20.050781 0.820312 " clip-rule="nonzero"/></clipPath><clipPath id="33b0ddd29e"><path d="M 17 0 L 19 0 L 19 2 L 17 2 Z M 17 0 " clip-rule="nonzero"/></clipPath><clipPath id="e9e850c5b0"><path d="M 20.050781 0.820312 L 17.324219 1.824219 L 16.570312 -0.21875 L 19.296875 -1.222656 Z M 20.050781 0.820312 " clip-rule="nonzero"/></clipPath><clipPath id="7cb47450dd"><path d="M 20.050781 0.820312 L 17.324219 1.824219 L 16.570312 -0.21875 L 19.296875 -1.222656 Z M 20.050781 0.820312 " clip-rule="nonzero"/></clipPath><clipPath id="52e79a3a72"><path d="M 17 0 L 18 0 L 18 2 L 17 2 Z M 17 0 " clip-rule="nonzero"/></clipPath><clipPath id="8b742b0615"><path d="M 20.050781 0.820312 L 17.324219 1.824219 L 16.570312 -0.21875 L 19.296875 -1.222656 Z M 20.050781 0.820312 " clip-rule="nonzero"/></clipPath><clipPath id="1e4659f4af"><path d="M 20.050781 0.820312 L 17.324219 1.824219 L 16.570312 -0.21875 L 19.296875 -1.222656 Z M 20.050781 0.820312 " clip-rule="nonzero"/></clipPath><clipPath id="822e2acbb0"><path d="M 18 0 L 20 0 L 20 1 L 18 1 Z M 18 0 " clip-rule="nonzero"/></clipPath><clipPath id="2fc8f7cec0"><path d="M 20.050781 0.820312 L 17.324219 1.824219 L 16.570312 -0.21875 L 19.296875 -1.222656 Z M 20.050781 0.820312 " clip-rule="nonzero"/></clipPath><clipPath id="d9d89bda7c"><path d="M 20.050781 0.820312 L 17.324219 1.824219 L 16.570312 -0.21875 L 19.296875 -1.222656 Z M 20.050781 0.820312 " clip-rule="nonzero"/></clipPath><clipPath id="ab38846f2c"><path d="M 18 0 L 20 0 L 20 2 L 18 2 Z M 18 0 " clip-rule="nonzero"/></clipPath><clipPath id="60b50a5cc1"><path d="M 20.050781 0.820312 L 17.324219 1.824219 L 16.570312 -0.21875 L 19.296875 -1.222656 Z M 20.050781 0.820312 " clip-rule="nonzero"/></clipPath><clipPath id="a6e3fce14e"><path d="M 20.050781 0.820312 L 17.324219 1.824219 L 16.570312 -0.21875 L 19.296875 -1.222656 Z M 20.050781 0.820312 " clip-rule="nonzero"/></clipPath><clipPath id="0c1288bace"><path d="M 18 0 L 20 0 L 20 1 L 18 1 Z M 18 0 " clip-rule="nonzero"/></clipPath><clipPath id="f873b86afb"><path d="M 20.050781 0.820312 L 17.324219 1.824219 L 16.570312 -0.21875 L 19.296875 -1.222656 Z M 20.050781 0.820312 " clip-rule="nonzero"/></clipPath><clipPath id="a3150773be"><path d="M 20.050781 0.820312 L 17.324219 1.824219 L 16.570312 -0.21875 L 19.296875 -1.222656 Z M 20.050781 0.820312 " clip-rule="nonzero"/></clipPath><clipPath id="461f9e1049"><path d="M 17 0 L 19 0 L 19 1 L 17 1 Z M 17 0 " clip-rule="nonzero"/></clipPath><clipPath id="8ac7543302"><path d="M 20.050781 0.820312 L 17.324219 1.824219 L 16.570312 -0.21875 L 19.296875 -1.222656 Z M 20.050781 0.820312 " clip-rule="nonzero"/></clipPath><clipPath id="1e065d5993"><path d="M 20.050781 0.820312 L 17.324219 1.824219 L 16.570312 -0.21875 L 19.296875 -1.222656 Z M 20.050781 0.820312 " clip-rule="nonzero"/></clipPath><clipPath id="60ccd4dda0"><path d="M 17 0 L 19 0 L 19 2 L 17 2 Z M 17 0 " clip-rule="nonzero"/></clipPath><clipPath id="c0b43e7817"><path d="M 20.050781 0.820312 L 17.324219 1.824219 L 16.570312 -0.21875 L 19.296875 -1.222656 Z M 20.050781 0.820312 " clip-rule="nonzero"/></clipPath><clipPath id="f62f5ccc0c"><path d="M 20.050781 0.820312 L 17.324219 1.824219 L 16.570312 -0.21875 L 19.296875 -1.222656 Z M 20.050781 0.820312 " clip-rule="nonzero"/></clipPath></defs><g fill="#000000" fill-opacity="1"><g transform="translate(1.058683, 25.154192)"><g><path d="M 2.234375 -1.171875 C 2.453125 -0.828125 2.671875 -0.507812 2.890625 -0.21875 L 2.875 -0.109375 C 2.5625 -0.015625 2.253906 0.0390625 1.953125 0.0625 L 1.875 -0.015625 L 1.8125 -0.140625 C 1.789062 -0.179688 1.742188 -0.28125 1.671875 -0.4375 C 1.597656 -0.601562 1.53125 -0.753906 1.46875 -0.890625 L 1.171875 -0.890625 L 1.203125 0 L 0.28125 0 L 0.328125 -0.875 L 0.28125 -2.96875 L 1.6875 -2.984375 C 2.019531 -2.984375 2.273438 -2.898438 2.453125 -2.734375 C 2.640625 -2.578125 2.734375 -2.351562 2.734375 -2.0625 C 2.734375 -1.882812 2.6875 -1.71875 2.59375 -1.5625 C 2.507812 -1.414062 2.390625 -1.285156 2.234375 -1.171875 Z M 1.765625 -1.96875 C 1.765625 -2.09375 1.734375 -2.179688 1.671875 -2.234375 C 1.609375 -2.296875 1.503906 -2.332031 1.359375 -2.34375 L 1.1875 -2.328125 L 1.171875 -1.5625 L 1.515625 -1.53125 C 1.597656 -1.570312 1.660156 -1.625 1.703125 -1.6875 C 1.742188 -1.757812 1.765625 -1.851562 1.765625 -1.96875 Z M 1.765625 -1.96875 "/></g></g></g><g fill="#000000" fill-opacity="1"><g transform="translate(3.952106, 25.154192)"><g><path d="M 2.828125 0 L 1.90625 0 L 1.8125 -0.484375 L 1.8125 -0.5 L 1.359375 -0.515625 L 0.984375 -0.5 L 0.90625 0 L 0.015625 0 L 0.90625 -2.96875 L 2.015625 -2.96875 Z M 1.671875 -1.171875 L 1.46875 -2.15625 L 1.421875 -2.15625 L 1.15625 -1.171875 Z M 1.671875 -1.171875 "/></g></g></g><g fill="#000000" fill-opacity="1"><g transform="translate(6.827187, 25.154192)"><g><path d="M 1.609375 -3.015625 C 1.878906 -3.015625 2.128906 -2.976562 2.359375 -2.90625 L 2.203125 -2.171875 L 2.140625 -2.125 C 2.066406 -2.175781 1.976562 -2.210938 1.875 -2.234375 C 1.769531 -2.265625 1.671875 -2.28125 1.578125 -2.28125 C 1.390625 -2.28125 1.253906 -2.222656 1.171875 -2.109375 C 1.085938 -2.003906 1.046875 -1.820312 1.046875 -1.5625 C 1.046875 -1.269531 1.09375 -1.054688 1.1875 -0.921875 C 1.289062 -0.785156 1.441406 -0.71875 1.640625 -0.71875 C 1.722656 -0.71875 1.816406 -0.722656 1.921875 -0.734375 C 2.023438 -0.753906 2.117188 -0.78125 2.203125 -0.8125 L 2.28125 -0.765625 L 2.203125 -0.03125 C 2.015625 0.0195312 1.800781 0.046875 1.5625 0.046875 C 1.070312 0.046875 0.703125 -0.078125 0.453125 -0.328125 C 0.203125 -0.585938 0.078125 -0.960938 0.078125 -1.453125 C 0.078125 -1.953125 0.207031 -2.335938 0.46875 -2.609375 C 0.738281 -2.878906 1.117188 -3.015625 1.609375 -3.015625 Z M 1.609375 -3.015625 "/></g></g></g><g fill="#000000" fill-opacity="1"><g transform="translate(9.184111, 25.154192)"><g><path d="M 2 -1.5625 C 2.289062 -1.125 2.613281 -0.664062 2.96875 -0.1875 L 2.953125 -0.09375 C 2.628906 -0.0195312 2.328125 0.03125 2.046875 0.0625 L 1.9375 0 C 1.625 -0.53125 1.367188 -0.984375 1.171875 -1.359375 L 1.15625 -0.96875 L 1.203125 0 L 0.28125 0 L 0.328125 -0.875 L 0.28125 -2.96875 L 1.21875 -2.96875 L 1.1875 -1.734375 L 1.75 -2.65625 L 1.90625 -2.96875 L 2.875 -2.96875 Z M 2 -1.5625 "/></g></g></g><g fill="#000000" fill-opacity="1"><g transform="translate(12.063777, 25.154192)"><g><path d="M 2.375 -0.734375 L 2.421875 -0.671875 L 2.375 0 L 0.28125 0 L 0.328125 -0.875 L 0.28125 -2.96875 L 2.40625 -2.96875 L 2.453125 -2.90625 L 2.390625 -2.234375 L 1.671875 -2.265625 L 1.1875 -2.265625 L 1.1875 -1.84375 L 1.640625 -1.84375 L 2.125 -1.859375 L 2.171875 -1.796875 L 2.109375 -1.125 L 1.578125 -1.140625 L 1.171875 -1.140625 L 1.15625 -0.96875 L 1.171875 -0.703125 L 1.609375 -0.703125 Z M 2.375 -0.734375 "/></g></g></g><g fill="#000000" fill-opacity="1"><g transform="translate(14.544509, 25.154192)"><g><path d="M 2.359375 -2.90625 L 2.3125 -2.234375 L 1.703125 -2.265625 L 1.640625 -2.265625 L 1.625 -0.96875 L 1.65625 0 L 0.734375 0 L 0.78125 -0.875 L 0.765625 -2.265625 L 0.703125 -2.265625 L 0.09375 -2.234375 L 0.03125 -2.296875 L 0.09375 -2.96875 L 2.3125 -2.96875 Z M 2.359375 -2.90625 "/></g></g></g><g fill="#000000" fill-opacity="1"><g transform="translate(16.924361, 25.154192)"><g/></g></g><g fill="#000000" fill-opacity="1"><g transform="translate(17.543398, 25.154192)"><g><path d="M 1.40625 -3.03125 C 1.695312 -3.03125 1.984375 -2.972656 2.265625 -2.859375 L 2.125 -2.125 L 1.984375 -2.0625 C 1.859375 -2.144531 1.734375 -2.207031 1.609375 -2.25 C 1.484375 -2.289062 1.378906 -2.3125 1.296875 -2.3125 C 1.234375 -2.3125 1.179688 -2.296875 1.140625 -2.265625 C 1.097656 -2.242188 1.078125 -2.210938 1.078125 -2.171875 C 1.078125 -2.109375 1.109375 -2.054688 1.171875 -2.015625 C 1.234375 -1.972656 1.335938 -1.921875 1.484375 -1.859375 C 1.648438 -1.773438 1.789062 -1.703125 1.90625 -1.640625 C 2.019531 -1.578125 2.113281 -1.488281 2.1875 -1.375 C 2.269531 -1.257812 2.3125 -1.117188 2.3125 -0.953125 C 2.3125 -0.765625 2.257812 -0.59375 2.15625 -0.4375 C 2.0625 -0.289062 1.914062 -0.171875 1.71875 -0.078125 C 1.53125 0.015625 1.3125 0.0625 1.0625 0.0625 C 0.75 0.0625 0.421875 0 0.078125 -0.125 L 0.21875 -0.921875 L 0.3125 -0.96875 C 0.445312 -0.863281 0.59375 -0.78125 0.75 -0.71875 C 0.914062 -0.65625 1.050781 -0.625 1.15625 -0.625 C 1.25 -0.625 1.3125 -0.640625 1.34375 -0.671875 C 1.382812 -0.703125 1.40625 -0.738281 1.40625 -0.78125 C 1.40625 -0.84375 1.367188 -0.894531 1.296875 -0.9375 C 1.234375 -0.976562 1.128906 -1.035156 0.984375 -1.109375 C 0.816406 -1.179688 0.675781 -1.25 0.5625 -1.3125 C 0.457031 -1.375 0.363281 -1.460938 0.28125 -1.578125 C 0.207031 -1.691406 0.171875 -1.832031 0.171875 -2 C 0.171875 -2.195312 0.222656 -2.375 0.328125 -2.53125 C 0.429688 -2.6875 0.578125 -2.804688 0.765625 -2.890625 C 0.953125 -2.984375 1.164062 -3.03125 1.40625 -3.03125 Z M 1.40625 -3.03125 "/></g></g></g><g fill="#000000" fill-opacity="1"><g transform="translate(19.964519, 25.154192)"><g><path d="M 2.984375 -0.96875 L 3.015625 0 L 2.09375 0 L 2.140625 -0.875 L 2.125 -1.109375 L 1.640625 -1.109375 L 1.203125 -1.09375 L 1.203125 -0.96875 L 1.234375 0 L 0.3125 0 L 0.359375 -0.875 L 0.3125 -2.96875 L 1.25 -2.96875 L 1.21875 -1.84375 L 2.109375 -1.84375 L 2.09375 -2.96875 L 3.03125 -2.96875 Z M 2.984375 -0.96875 "/></g></g></g><g fill="#000000" fill-opacity="1"><g transform="translate(23.224778, 25.154192)"><g><path d="M 1.5625 -3.03125 C 2 -3.03125 2.332031 -2.898438 2.5625 -2.640625 C 2.800781 -2.390625 2.921875 -2.03125 2.921875 -1.5625 C 2.921875 -1.050781 2.789062 -0.648438 2.53125 -0.359375 C 2.269531 -0.078125 1.90625 0.0625 1.4375 0.0625 C 1 0.0625 0.660156 -0.0664062 0.421875 -0.328125 C 0.191406 -0.585938 0.078125 -0.957031 0.078125 -1.4375 C 0.078125 -1.945312 0.207031 -2.335938 0.46875 -2.609375 C 0.726562 -2.890625 1.09375 -3.03125 1.5625 -3.03125 Z M 1.484375 -2.296875 C 1.359375 -2.296875 1.265625 -2.273438 1.203125 -2.234375 C 1.148438 -2.191406 1.109375 -2.117188 1.078125 -2.015625 C 1.054688 -1.910156 1.046875 -1.757812 1.046875 -1.5625 C 1.046875 -1.300781 1.054688 -1.101562 1.078125 -0.96875 C 1.109375 -0.84375 1.15625 -0.753906 1.21875 -0.703125 C 1.289062 -0.648438 1.390625 -0.625 1.515625 -0.625 C 1.628906 -0.625 1.71875 -0.644531 1.78125 -0.6875 C 1.84375 -0.726562 1.882812 -0.800781 1.90625 -0.90625 C 1.9375 -1.007812 1.953125 -1.160156 1.953125 -1.359375 C 1.953125 -1.609375 1.9375 -1.800781 1.90625 -1.9375 C 1.882812 -2.070312 1.835938 -2.164062 1.765625 -2.21875 C 1.703125 -2.269531 1.609375 -2.296875 1.484375 -2.296875 Z M 1.484375 -2.296875 "/></g></g></g><g fill="#000000" fill-opacity="1"><g transform="translate(26.21908, 25.154192)"><g><path d="M 1.6875 -2.984375 C 2.019531 -2.984375 2.273438 -2.898438 2.453125 -2.734375 C 2.628906 -2.566406 2.71875 -2.332031 2.71875 -2.03125 C 2.71875 -1.789062 2.660156 -1.582031 2.546875 -1.40625 C 2.441406 -1.226562 2.285156 -1.085938 2.078125 -0.984375 C 1.878906 -0.890625 1.648438 -0.84375 1.390625 -0.84375 L 1.171875 -0.84375 L 1.203125 0 L 0.28125 0 L 0.328125 -0.875 L 0.28125 -2.96875 Z M 1.515625 -1.484375 C 1.597656 -1.523438 1.660156 -1.582031 1.703125 -1.65625 C 1.742188 -1.726562 1.765625 -1.820312 1.765625 -1.9375 C 1.765625 -2.070312 1.726562 -2.171875 1.65625 -2.234375 C 1.59375 -2.296875 1.492188 -2.332031 1.359375 -2.34375 L 1.1875 -2.328125 L 1.171875 -1.5 Z M 1.515625 -1.484375 "/></g></g></g><g clip-path="url(#0a9cbda6e6)"><path fill="#000000" d="M 24.449219 14.410156 C 24.527344 14.183594 24.710938 13.867188 24.824219 13.554688 C 24.929688 13.238281 25 12.9375 24.925781 12.785156 C 24.835938 12.59375 24.691406 12.859375 24.605469 12.847656 C 24.527344 12.839844 24.308594 12.734375 24.082031 12.652344 C 23.855469 12.570312 23.617188 12.515625 23.492188 12.582031 C 23.414062 12.628906 23.332031 12.796875 23.253906 13.03125 C 23.210938 13.152344 23.183594 13.289062 23.132812 13.433594 C 23.078125 13.578125 23.023438 13.734375 22.96875 13.894531 L 22.890625 14.140625 C 22.859375 14.222656 22.820312 14.300781 22.789062 14.378906 C 22.71875 14.539062 22.652344 14.699219 22.585938 14.855469 C 22.433594 15.152344 22.273438 15.417969 22.152344 15.621094 C 21.6875 16.261719 21.167969 16.855469 20.597656 17.40625 C 20.027344 17.90625 19.414062 18.371094 18.640625 18.769531 C 17.570312 19.292969 16.511719 19.492188 15.433594 19.535156 C 14.347656 19.574219 13.226562 19.476562 11.882812 19.148438 C 11.089844 18.917969 10.355469 18.5625 9.6875 18.078125 C 8.941406 17.542969 8.257812 16.804688 7.726562 15.980469 C 7.191406 15.152344 6.816406 14.234375 6.601562 13.363281 C 6.554688 13.144531 6.507812 12.929688 6.460938 12.722656 C 6.4375 12.511719 6.410156 12.304688 6.386719 12.109375 C 6.351562 11.910156 6.351562 11.71875 6.34375 11.535156 C 6.335938 11.351562 6.328125 11.175781 6.320312 11.011719 C 6.328125 11.109375 6.167969 11.050781 6.320312 11.011719 C 6.390625 10.234375 6.542969 9.328125 6.886719 8.414062 C 7.226562 7.496094 7.757812 6.589844 8.410156 5.792969 C 9.058594 4.992188 9.835938 4.308594 10.613281 3.769531 L 11.195312 3.398438 C 11.390625 3.277344 11.585938 3.1875 11.769531 3.082031 L 12.042969 2.929688 C 12.132812 2.886719 12.226562 2.847656 12.3125 2.804688 C 12.492188 2.726562 12.660156 2.648438 12.820312 2.566406 C 12.445312 2.753906 12.644531 2.648438 12.933594 2.5 C 13.226562 2.378906 13.617188 2.214844 13.566406 2.203125 C 13.4375 2.175781 13.292969 2.183594 13.140625 2.210938 C 12.984375 2.238281 12.832031 2.285156 12.6875 2.355469 L 11.863281 2.761719 L 11.296875 3.03125 L 11.15625 3.101562 L 11.023438 3.179688 L 10.761719 3.339844 C 10.402344 3.539062 10.085938 3.792969 9.761719 4.023438 C 9.136719 4.523438 8.550781 5.03125 8.007812 5.582031 C 8.183594 5.714844 7.84375 5.84375 7.808594 5.972656 C 7.992188 6.246094 7.453125 6.273438 7.808594 5.972656 C 7.703125 6.03125 7.578125 6.167969 7.433594 6.339844 C 7.363281 6.421875 7.289062 6.519531 7.214844 6.617188 C 7.140625 6.714844 7.082031 6.832031 7.019531 6.9375 C 6.898438 7.15625 6.769531 7.363281 6.699219 7.546875 L 6.546875 7.914062 C 6.503906 8.019531 6.417969 8.15625 6.335938 8.320312 C 6.261719 8.484375 6.175781 8.671875 6.09375 8.867188 C 6.003906 9.0625 5.953125 9.273438 5.921875 9.476562 C 5.890625 9.679688 5.878906 9.875 5.910156 10.042969 C 5.90625 10.019531 5.945312 9.8125 6.011719 9.503906 C 6.050781 9.351562 6.074219 9.167969 6.148438 8.980469 C 6.210938 8.789062 6.28125 8.585938 6.355469 8.378906 C 6.683594 7.558594 7.1875 6.722656 7.460938 6.460938 C 7.558594 6.359375 7.523438 6.4375 7.421875 6.613281 L 7.328125 6.761719 C 7.296875 6.820312 7.265625 6.882812 7.230469 6.949219 C 7.160156 7.085938 7.078125 7.234375 6.996094 7.394531 C 6.90625 7.546875 6.84375 7.722656 6.769531 7.890625 C 6.699219 8.058594 6.628906 8.21875 6.570312 8.367188 L 6.359375 9.019531 C 6.316406 9.132812 6.308594 9.359375 6.296875 9.578125 C 6.28125 9.792969 6.261719 10 6.214844 10.097656 C 6.207031 10.113281 5.992188 10.226562 5.992188 10.226562 C 5.984375 10.335938 6.035156 10.453125 6.074219 10.601562 C 6.097656 10.679688 6.109375 10.761719 6.117188 10.847656 C 6.121094 10.953125 6.121094 11.054688 6.113281 11.160156 C 6.082031 11.460938 6.019531 11.417969 5.972656 11.273438 C 5.921875 11.132812 5.886719 10.890625 5.925781 10.816406 C 5.859375 10.953125 5.839844 11.105469 5.8125 11.269531 C 5.789062 11.429688 5.773438 11.605469 5.765625 11.785156 C 5.753906 11.96875 5.785156 12.15625 5.800781 12.347656 C 5.8125 12.445312 5.824219 12.542969 5.835938 12.644531 L 5.855469 12.792969 L 5.890625 12.941406 C 6.054688 13.746094 6.410156 14.550781 6.742188 15.292969 C 7.125 16.078125 7.597656 16.800781 8.160156 17.464844 C 8.726562 18.113281 9.359375 18.65625 9.964844 19.105469 C 11.21875 19.992188 12.628906 20.40625 13.988281 20.5 C 14.160156 20.523438 14.332031 20.507812 14.5 20.511719 L 15.007812 20.511719 L 15.511719 20.460938 C 15.679688 20.441406 15.847656 20.441406 16.011719 20.402344 C 16.339844 20.332031 16.675781 20.300781 17 20.195312 L 17.488281 20.066406 C 17.652344 20.015625 17.808594 19.953125 17.972656 19.898438 C 18.039062 19.871094 18.203125 19.839844 18.398438 19.773438 L 19.0625 19.527344 C 19.292969 19.433594 19.5 19.316406 19.664062 19.230469 C 19.824219 19.144531 19.929688 19.070312 19.925781 19.035156 C 19.929688 19.085938 19.816406 19.179688 19.640625 19.308594 C 19.464844 19.429688 19.238281 19.601562 18.972656 19.722656 C 18.464844 20.007812 17.863281 20.1875 17.664062 20.25 C 17.523438 20.289062 17.359375 20.3125 17.183594 20.355469 C 17.011719 20.386719 16.832031 20.445312 16.636719 20.464844 L 16.039062 20.546875 L 15.886719 20.566406 L 15.734375 20.574219 L 15.429688 20.585938 C 14.625 20.636719 13.886719 20.542969 13.554688 20.5 C 13.523438 20.496094 13.402344 20.492188 13.242188 20.492188 C 13.085938 20.480469 12.894531 20.453125 12.714844 20.4375 C 12.535156 20.425781 12.371094 20.414062 12.28125 20.414062 C 12.191406 20.40625 12.171875 20.421875 12.277344 20.46875 C 13.546875 20.984375 15.113281 21.042969 16.5625 20.734375 C 16.652344 20.714844 16.746094 20.699219 16.835938 20.675781 L 17.101562 20.601562 L 17.632812 20.449219 C 17.804688 20.386719 17.972656 20.316406 18.144531 20.253906 C 18.316406 20.191406 18.488281 20.136719 18.648438 20.054688 C 18.96875 19.898438 19.300781 19.769531 19.605469 19.589844 C 19.757812 19.511719 19.914062 19.433594 20.066406 19.355469 C 20.214844 19.265625 20.359375 19.179688 20.507812 19.097656 C 20.546875 19.003906 20.648438 18.914062 20.773438 18.824219 C 20.902344 18.71875 21.039062 18.621094 21.175781 18.53125 C 21.316406 18.4375 21.460938 18.355469 21.554688 18.277344 C 21.652344 18.195312 21.710938 18.128906 21.707031 18.09375 C 21.71875 18.183594 21.675781 18.277344 21.597656 18.375 C 21.515625 18.464844 21.394531 18.550781 21.265625 18.636719 L 20.863281 18.886719 C 20.726562 18.957031 20.601562 19.023438 20.507812 19.097656 C 20.363281 19.214844 20.21875 19.335938 20.066406 19.445312 L 19.59375 19.753906 L 19.359375 19.910156 L 19.109375 20.039062 L 18.609375 20.304688 C 19.914062 19.765625 21.070312 19 22.078125 18.011719 C 22.351562 17.769531 22.570312 17.480469 22.816406 17.207031 C 22.941406 17.074219 23.039062 16.917969 23.148438 16.773438 L 23.46875 16.328125 C 23.648438 16.015625 23.847656 15.707031 24.011719 15.386719 L 24.242188 14.902344 C 24.320312 14.738281 24.398438 14.578125 24.449219 14.410156 Z M 24.15625 13.160156 C 24.210938 13.125 24.269531 13.328125 24.238281 13.347656 C 24.183594 13.382812 24.125 13.179688 24.15625 13.160156 Z M 23.289062 16.101562 C 23.457031 16.078125 22.769531 17.175781 23.125 16.414062 C 23.144531 16.371094 23.25 16.117188 23.289062 16.101562 Z M 22.816406 16.746094 C 22.890625 16.734375 22.765625 17.003906 22.636719 17.164062 C 22.515625 17.328125 22.429688 17.402344 22.636719 17.046875 C 22.667969 17.007812 22.773438 16.757812 22.816406 16.746094 Z M 23.714844 14.398438 Z M 22.351562 17.273438 C 22.414062 17.261719 22.183594 17.660156 21.964844 17.878906 C 21.761719 18.109375 21.644531 18.207031 22.042969 17.695312 C 22.152344 17.5625 22.273438 17.277344 22.351562 17.273438 Z M 23.429688 14.9375 C 23.488281 14.914062 23.507812 15.121094 23.472656 15.136719 C 23.417969 15.15625 23.398438 14.949219 23.429688 14.9375 Z M 23.289062 15.339844 C 23.417969 15.335938 23.144531 15.917969 23.136719 15.929688 C 22.90625 16.40625 22.449219 16.929688 22.085938 17.292969 C 21.953125 17.449219 21.703125 17.671875 21.554688 17.789062 C 21.40625 17.90625 21.347656 17.914062 21.558594 17.625 C 21.742188 17.40625 21.996094 17.097656 22.304688 16.765625 C 22.453125 16.597656 22.589844 16.410156 22.742188 16.226562 C 22.898438 16.042969 23.023438 15.84375 23.148438 15.652344 C 23.171875 15.617188 23.253906 15.339844 23.289062 15.339844 Z M 21.105469 17.996094 C 21.167969 18 21.09375 18.1875 21.058594 18.183594 C 20.996094 18.175781 21.066406 17.992188 21.105469 17.996094 Z M 20.808594 18.28125 C 20.878906 18.289062 20.726562 18.601562 20.640625 18.589844 C 20.574219 18.578125 20.722656 18.269531 20.808594 18.28125 Z M 12.988281 19.992188 Z M 9.9375 18.707031 C 9.941406 18.761719 9.933594 18.625 9.9375 18.707031 Z M 9.675781 18.527344 C 9.679688 18.589844 9.414062 18.539062 9.414062 18.46875 C 9.414062 18.40625 9.671875 18.460938 9.675781 18.527344 Z M 9.296875 18.230469 C 9.292969 18.292969 9.101562 18.242188 9.105469 18.203125 C 9.109375 18.144531 9.296875 18.195312 9.296875 18.230469 Z M 9.113281 18.074219 C 9.117188 18.007812 8.957031 17.960938 8.800781 17.890625 C 8.652344 17.820312 8.5 17.738281 8.511719 17.648438 C 8.617188 17.679688 8.71875 17.71875 8.816406 17.765625 C 8.960938 17.84375 9.125 17.925781 9.113281 18.074219 Z M 8.417969 17.40625 C 8.375 17.566406 7.671875 16.617188 8.203125 17.167969 L 8.320312 17.285156 C 8.375 17.332031 8.421875 17.382812 8.417969 17.40625 Z M 8 16.917969 C 8 16.917969 7.914062 16.871094 7.828125 16.816406 C 7.738281 16.761719 7.652344 16.695312 7.667969 16.660156 C 7.6875 16.65625 7.707031 16.660156 7.726562 16.664062 C 7.773438 16.667969 7.816406 16.679688 7.859375 16.695312 C 7.949219 16.726562 8.03125 16.789062 8 16.914062 Z M 7.617188 16.398438 C 7.570312 16.539062 6.964844 15.519531 7.441406 16.128906 C 7.46875 16.164062 7.632812 16.351562 7.617188 16.398438 Z M 7.191406 15.707031 C 7.203125 15.683594 7.140625 15.589844 7.042969 15.457031 L 6.871094 15.234375 C 6.816406 15.148438 6.757812 15.054688 6.703125 14.960938 C 6.589844 14.769531 6.464844 14.574219 6.40625 14.402344 C 6.347656 14.226562 6.328125 14.085938 6.375 14.019531 C 6.328125 14.085938 6.53125 14.457031 6.785156 14.8125 C 7 15.183594 7.277344 15.523438 7.191406 15.707031 Z M 6.421875 13.832031 C 6.378906 13.902344 6.28125 13.671875 6.265625 13.5 C 6.246094 13.335938 6.261719 13.242188 6.351562 13.597656 C 6.363281 13.628906 6.441406 13.808594 6.421875 13.832031 Z M 6.289062 13.277344 C 6.289062 13.277344 6.234375 13.199219 6.179688 13.109375 C 6.128906 13.019531 6.085938 12.921875 6.109375 12.894531 C 6.128906 12.902344 6.144531 12.914062 6.164062 12.925781 C 6.199219 12.953125 6.234375 12.980469 6.265625 13.015625 C 6.332031 13.085938 6.375 13.179688 6.289062 13.277344 Z M 6.152344 12.390625 Z M 6.128906 12.144531 C 6.082031 12.195312 5.925781 11.878906 6 11.820312 C 6.046875 11.777344 6.191406 12.089844 6.128906 12.144531 Z M 8.511719 5.464844 C 8.441406 5.457031 8.550781 5.207031 8.621094 5.214844 C 8.6875 5.222656 8.578125 5.472656 8.511719 5.464844 Z M 8.933594 5.054688 C 8.851562 5.046875 9.019531 4.851562 9.164062 4.753906 C 9.308594 4.65625 9.394531 4.621094 9.113281 4.878906 C 9.09375 4.902344 8.964844 5.058594 8.933594 5.054688 Z M 6.558594 9.078125 Z M 6.890625 8.15625 C 6.890625 8.15625 6.890625 8.054688 6.898438 7.953125 C 6.910156 7.847656 6.929688 7.742188 6.964844 7.734375 C 6.976562 7.75 6.984375 7.769531 6.988281 7.789062 C 7.007812 7.832031 7.015625 7.875 7.023438 7.921875 C 7.035156 8.019531 7.015625 8.121094 6.890625 8.15625 Z M 7.203125 7.484375 C 7.035156 7.515625 7.65625 6.597656 7.324219 7.269531 C 7.3125 7.300781 7.238281 7.480469 7.203125 7.484375 Z M 7.667969 6.707031 C 7.496094 6.71875 8.207031 5.863281 7.808594 6.503906 C 7.792969 6.53125 7.699219 6.703125 7.667969 6.707031 Z M 6.378906 12.609375 C 6.335938 12.65625 6.238281 12.488281 6.261719 12.460938 C 6.308594 12.417969 6.40625 12.585938 6.378906 12.609375 Z M 6.378906 12.609375 " fill-opacity="1" fill-rule="evenodd"/></g><path fill="#000000" d="M 18.609375 20.304688 C 18.542969 20.410156 18.382812 20.484375 18.183594 20.554688 C 17.980469 20.617188 17.742188 20.6875 17.503906 20.703125 C 17.261719 20.730469 17.035156 20.753906 16.859375 20.785156 C 16.679688 20.804688 16.550781 20.828125 16.519531 20.890625 C 16.566406 20.796875 16.714844 20.753906 16.910156 20.695312 C 17.101562 20.636719 17.347656 20.59375 17.59375 20.558594 C 17.835938 20.519531 18.070312 20.453125 18.261719 20.414062 C 18.449219 20.367188 18.585938 20.335938 18.609375 20.304688 Z M 18.609375 20.304688 " fill-opacity="1" fill-rule="evenodd"/><g clip-path="url(#8ff814ff16)"><path fill="#000000" d="M 14.878906 20.980469 C 14.847656 20.941406 14.425781 21.035156 13.972656 21.078125 C 13.527344 21.089844 13.042969 21.09375 12.96875 20.9375 C 13 21.011719 13.4375 20.953125 13.867188 20.925781 C 14.085938 20.917969 14.304688 20.875 14.488281 20.875 C 14.667969 20.875 14.8125 20.902344 14.878906 20.980469 Z M 14.878906 20.980469 " fill-opacity="1" fill-rule="evenodd"/></g><path fill="#000000" d="M 12.648438 20.761719 C 12.679688 20.816406 12.472656 20.855469 12.453125 20.824219 C 12.425781 20.769531 12.632812 20.726562 12.648438 20.761719 Z M 12.648438 20.761719 " fill-opacity="1" fill-rule="evenodd"/><g clip-path="url(#22e17c0d18)"><path fill="#000000" d="M 15.003906 1.972656 C 14.882812 1.832031 16.492188 1.953125 15.371094 1.976562 C 15.316406 1.976562 15.039062 2.007812 15.003906 1.972656 Z M 15.003906 1.972656 " fill-opacity="1" fill-rule="evenodd"/></g><path fill="#000000" d="M 13.742188 2.171875 C 13.605469 2.039062 15.1875 1.9375 14.464844 2.097656 C 14.46875 2.097656 14.308594 2.132812 14.136719 2.160156 C 13.964844 2.183594 13.785156 2.199219 13.742188 2.171875 Z M 13.742188 2.171875 " fill-opacity="1" fill-rule="evenodd"/><path fill="#000000" d="M 8.003906 5.578125 C 7.847656 5.917969 7.757812 5.390625 8.003906 5.578125 Z M 8.003906 5.578125 " fill-opacity="1" fill-rule="evenodd"/><path fill="#000000" d="M 10.988281 18.621094 C 10.988281 18.636719 10.898438 18.597656 10.757812 18.535156 L 10.515625 18.421875 C 10.429688 18.375 10.34375 18.3125 10.25 18.257812 L 9.976562 18.082031 C 9.890625 18.035156 9.808594 17.976562 9.734375 17.914062 L 9.457031 17.691406 C 9.234375 17.527344 8.90625 17.253906 8.605469 17.003906 C 8.34375 16.726562 8.117188 16.460938 8.171875 16.300781 C 8.15625 16.335938 8.421875 16.609375 8.699219 16.90625 C 9.011719 17.179688 9.332031 17.472656 9.46875 17.566406 C 9.605469 17.679688 9.957031 17.910156 10.308594 18.089844 C 10.394531 18.140625 10.476562 18.1875 10.550781 18.238281 C 10.625 18.289062 10.703125 18.324219 10.765625 18.371094 C 10.894531 18.453125 10.976562 18.539062 10.988281 18.621094 Z M 10.988281 18.621094 " fill-opacity="1" fill-rule="evenodd"/><g clip-path="url(#1f181d389b)"><path fill="#000000" d="M 25.929688 9.175781 C 25.90625 9.082031 25.570312 8.742188 25.488281 8.730469 C 25.410156 8.71875 24.9375 8.878906 24.917969 8.878906 C 24.898438 8.878906 24.691406 8.890625 24.59375 8.890625 C 24.492188 8.890625 23.5 8.714844 23.394531 8.6875 C 23.289062 8.65625 22.820312 8.523438 22.449219 8.410156 C 22.074219 8.300781 21.71875 8.367188 21.71875 8.367188 L 20.992188 8.320312 C 21.023438 8.214844 21 7.664062 21 7.664062 C 21 7.664062 20.953125 7.640625 20.835938 7.648438 C 20.71875 7.652344 20.371094 7.609375 20.238281 7.597656 C 20.109375 7.585938 19.976562 7.574219 19.78125 7.492188 C 19.582031 7.410156 19.0625 7.292969 18.933594 7.34375 C 18.804688 7.390625 18.304688 7.40625 18.085938 7.429688 C 17.871094 7.453125 17.445312 7.765625 17.445312 7.765625 C 17.445312 7.765625 17.386719 7.726562 17.316406 7.671875 C 17.25 7.617188 17.210938 7.484375 17.210938 7.484375 L 17.125 7.480469 C 17.125 7.480469 17.117188 7.375 17.117188 7.335938 C 17.117188 7.300781 17.128906 7.230469 17.128906 7.230469 L 17.253906 7.164062 C 17.253906 7.164062 17.304688 7.132812 17.402344 7.050781 C 17.503906 6.96875 17.429688 6.800781 17.421875 6.777344 C 17.417969 6.75 17.371094 6.421875 17.347656 6.386719 C 17.324219 6.347656 17.230469 6.199219 17.230469 6.148438 C 17.230469 6.097656 17.144531 5.96875 17.144531 5.96875 C 17.144531 5.96875 16.96875 5.945312 16.9375 5.945312 C 16.90625 5.945312 16.78125 5.894531 16.71875 5.855469 C 16.65625 5.820312 16.507812 5.789062 16.425781 5.757812 C 16.347656 5.726562 16.226562 5.683594 16.183594 5.675781 C 16.140625 5.667969 16.089844 5.621094 16.089844 5.621094 C 16.089844 5.621094 16 5.539062 15.96875 5.515625 C 15.9375 5.488281 15.785156 5.546875 15.613281 5.613281 C 15.4375 5.683594 14.816406 6.308594 14.730469 6.433594 C 14.640625 6.558594 14.640625 6.859375 14.640625 7.011719 C 14.640625 7.167969 14.792969 7.394531 14.886719 7.585938 C 14.976562 7.777344 15.300781 7.847656 15.382812 7.878906 C 15.464844 7.910156 15.648438 7.804688 15.648438 7.804688 L 15.769531 7.890625 L 15.480469 8.3125 C 15.480469 8.3125 15.53125 8.5625 15.507812 8.605469 C 15.480469 8.648438 15.265625 8.644531 15.265625 8.644531 C 15.265625 8.644531 14.996094 8.839844 14.914062 8.902344 C 14.835938 8.964844 14.417969 9.375 14.3125 9.519531 C 14.207031 9.664062 13.921875 10.035156 13.890625 10.046875 C 13.859375 10.0625 13.542969 10.105469 13.523438 10.140625 C 13.503906 10.179688 13.484375 10.328125 13.421875 10.421875 C 13.359375 10.515625 13.296875 10.496094 13.230469 10.546875 C 13.160156 10.59375 13.148438 10.675781 13.148438 10.675781 C 13.148438 10.675781 12.894531 10.445312 12.84375 10.335938 C 12.796875 10.222656 12.527344 9.539062 12.476562 9.390625 C 12.429688 9.238281 12.472656 9.039062 12.503906 8.980469 C 12.535156 8.917969 12.566406 8.6875 12.519531 8.613281 C 12.476562 8.539062 12.335938 8.164062 12.335938 8.164062 C 12.335938 8.164062 12.589844 7.820312 12.609375 7.765625 C 12.625 7.710938 12.652344 7.546875 12.652344 7.546875 L 12.777344 7.175781 L 14.125 4.910156 C 14.125 4.910156 14.5 5.078125 15.144531 4.785156 C 15.792969 4.496094 16.015625 3.5 16.042969 2.941406 C 16.066406 2.378906 15.707031 2.117188 15.34375 1.976562 C 14.984375 1.832031 14.472656 2.074219 14.015625 2.585938 C 13.554688 3.09375 13.460938 3.691406 13.460938 4.066406 C 13.460938 4.4375 13.933594 4.835938 13.933594 4.835938 L 12.652344 7.136719 C 12.652344 7.136719 12.433594 7.390625 12.402344 7.410156 C 12.371094 7.429688 12.167969 7.695312 12.167969 7.695312 C 12.167969 7.695312 12.074219 7.679688 11.992188 7.734375 C 11.914062 7.789062 11.90625 8.007812 11.90625 8.007812 C 11.90625 8.007812 11.8125 8.015625 11.714844 8.039062 C 11.613281 8.0625 11.644531 8.332031 11.644531 8.332031 C 11.5 8.363281 11.546875 8.523438 11.546875 8.523438 C 11.546875 8.523438 11.488281 8.566406 11.441406 8.625 C 11.390625 8.679688 11.433594 8.898438 11.433594 8.898438 C 11.339844 8.945312 11.359375 9.101562 11.414062 9.140625 C 11.46875 9.175781 11.730469 9.460938 11.730469 9.460938 C 11.730469 9.460938 11.855469 9.707031 11.914062 9.949219 C 11.96875 10.191406 11.976562 10.742188 11.980469 10.832031 C 11.988281 10.917969 12.0625 11.105469 12.09375 11.167969 C 12.125 11.230469 12.367188 11.65625 12.402344 11.769531 C 12.441406 11.882812 12.613281 12.25 12.746094 12.328125 C 12.875 12.410156 13.285156 12.316406 13.375 12.261719 C 13.460938 12.203125 13.753906 11.945312 13.777344 11.925781 C 13.804688 11.90625 13.90625 11.867188 13.90625 11.867188 L 14.34375 11.621094 C 14.34375 11.621094 14.757812 11.453125 14.902344 11.378906 C 15.050781 11.304688 15.097656 11.109375 15.097656 11.109375 C 15.097656 11.109375 15.253906 11.207031 15.253906 11.253906 C 15.253906 11.296875 15.34375 11.53125 15.386719 11.621094 C 15.433594 11.710938 15.445312 11.738281 15.667969 11.828125 C 15.886719 11.914062 15.875 11.960938 15.875 11.960938 C 15.875 11.960938 15.84375 12.339844 15.84375 12.472656 C 15.84375 12.605469 15.753906 12.886719 15.742188 12.945312 C 15.726562 13.003906 15.753906 13.164062 15.828125 13.296875 C 15.902344 13.429688 16.078125 13.738281 16.136719 13.871094 C 16.195312 14.003906 16.183594 14.164062 16.253906 14.371094 C 16.328125 14.578125 16.566406 14.738281 16.566406 14.738281 L 16.59375 15.445312 C 16.59375 15.445312 16.652344 15.929688 16.476562 16.179688 C 16.300781 16.429688 16.09375 17.371094 16.09375 17.371094 L 15.816406 17.210938 C 15.816406 17.210938 15.742188 17.121094 15.460938 17.035156 C 15.183594 16.945312 14.785156 17.035156 14.550781 17.035156 C 14.3125 17.035156 13.84375 16.960938 13.84375 16.960938 L 13.769531 16.902344 C 13.769531 16.902344 13.667969 16.902344 13.621094 16.902344 C 13.578125 16.902344 13.359375 16.785156 13.359375 16.785156 L 13.386719 16.621094 L 13.242188 16.371094 C 13.242188 16.371094 13.242188 16.195312 13.179688 16.105469 C 13.121094 16.019531 12.960938 15.871094 12.679688 15.84375 C 12.402344 15.8125 11.871094 16.402344 11.871094 16.402344 L 11.828125 16.59375 C 11.828125 16.59375 11.710938 16.710938 11.667969 16.738281 C 11.621094 16.769531 11.429688 16.917969 11.152344 17.121094 C 10.871094 17.328125 10.664062 17.726562 10.621094 18.136719 C 10.578125 18.550781 10.929688 18.652344 11.078125 18.667969 C 11.226562 18.679688 11.417969 18.445312 11.578125 18.34375 C 11.738281 18.242188 11.917969 18.152344 11.976562 18.121094 C 12.035156 18.09375 12.3125 18.019531 12.3125 18.019531 C 12.3125 18.019531 12.386719 18.019531 12.488281 18.003906 C 12.59375 17.988281 12.550781 17.917969 12.550781 17.917969 L 12.652344 17.8125 L 13.226562 17.871094 L 13.386719 17.859375 L 13.609375 17.929688 C 13.609375 17.929688 14.210938 18.328125 14.550781 18.476562 C 14.886719 18.621094 15.167969 18.636719 15.167969 18.636719 L 15.0625 18.800781 C 15.0625 18.800781 15.019531 19.09375 14.695312 19.226562 C 14.371094 19.359375 13.753906 20.226562 13.695312 20.609375 C 13.636719 20.992188 13.886719 21.035156 14.050781 21.0625 C 14.210938 21.09375 14.226562 21.019531 14.3125 20.902344 C 14.402344 20.785156 14.621094 20.683594 14.859375 20.578125 C 15.09375 20.476562 15.152344 20.476562 15.152344 20.476562 L 15.269531 20.503906 C 15.269531 20.503906 15.300781 20.5625 15.417969 20.59375 C 15.535156 20.621094 15.550781 20.519531 15.652344 20.429688 C 15.753906 20.34375 15.785156 20.3125 15.785156 20.3125 C 15.785156 20.3125 15.875 20.359375 15.945312 20.371094 C 16.019531 20.386719 16.050781 20.328125 16.078125 20.226562 C 16.109375 20.121094 16.003906 20.109375 16.003906 20.109375 C 16.003906 20.109375 16.167969 20.035156 16.226562 20.019531 C 16.285156 20.003906 16.460938 20.019531 16.550781 20.003906 C 16.636719 19.992188 16.726562 19.945312 16.785156 19.945312 C 16.84375 19.945312 17.019531 19.945312 17.019531 19.945312 L 17.066406 19.886719 L 17.316406 19.859375 C 17.316406 19.859375 18.769531 19.933594 19.09375 19.902344 C 19.417969 19.871094 20.332031 19.933594 20.566406 19.859375 C 20.800781 19.785156 21.109375 19.503906 21.199219 18.929688 C 21.285156 18.359375 21.183594 16.679688 21.183594 16.679688 C 21.183594 16.679688 21.167969 16.59375 21.167969 16.535156 C 21.167969 16.476562 21.050781 15.828125 21.023438 15.652344 C 20.992188 15.472656 20.84375 15.0625 20.757812 14.929688 C 20.667969 14.796875 20.609375 14.679688 20.609375 14.5625 C 20.609375 14.445312 20.683594 14.269531 20.640625 14.105469 C 20.59375 13.945312 20.550781 13.753906 20.566406 13.664062 C 20.582031 13.578125 20.550781 13.398438 20.550781 13.398438 C 20.558594 13.324219 20.496094 13.273438 20.394531 13.242188 C 20.296875 13.210938 20.203125 13.148438 20.203125 13.148438 C 20.203125 13.148438 20.210938 12.8125 20.195312 12.769531 C 20.183594 12.726562 20.132812 12.601562 20.117188 12.484375 C 20.097656 12.367188 20.121094 12.335938 20.164062 12.222656 C 20.207031 12.109375 20.160156 11.851562 20.121094 11.71875 C 20.085938 11.589844 20.015625 11.632812 19.980469 11.550781 C 19.941406 11.472656 20.023438 11.484375 20.058594 11.378906 C 20.097656 11.273438 19.953125 11.089844 19.941406 11.054688 C 19.929688 11.015625 19.765625 10.804688 19.691406 10.761719 C 19.617188 10.71875 19.597656 10.675781 19.585938 10.632812 C 19.574219 10.585938 19.617188 10.601562 19.679688 10.582031 C 19.742188 10.5625 19.65625 10.332031 19.617188 10.171875 C 19.582031 10.007812 19.234375 9.363281 19.234375 9.363281 C 19.234375 9.363281 19.214844 9.300781 19.21875 9.28125 C 19.226562 9.261719 19.300781 9.207031 19.332031 9.1875 C 19.363281 9.171875 19.4375 9.195312 19.457031 9.203125 C 19.476562 9.207031 19.585938 9.292969 19.675781 9.300781 C 19.761719 9.308594 19.90625 9.257812 19.960938 9.238281 C 20.015625 9.21875 20.296875 9.246094 20.378906 9.25 C 20.457031 9.257812 20.875 9.289062 20.90625 9.289062 C 20.9375 9.289062 21.246094 9.363281 21.292969 9.398438 C 21.335938 9.4375 21.539062 9.539062 21.863281 9.597656 C 22.1875 9.660156 22.789062 9.605469 22.941406 9.59375 C 23.089844 9.582031 23.773438 9.492188 23.972656 9.480469 C 24.171875 9.46875 24.496094 9.449219 24.519531 9.507812 C 24.542969 9.5625 24.863281 9.691406 24.984375 9.691406 C 25.109375 9.691406 25.160156 9.605469 25.179688 9.582031 C 25.195312 9.554688 25.320312 9.5625 25.320312 9.5625 L 25.234375 9.671875 C 25.234375 9.671875 25.117188 9.828125 25.117188 9.898438 C 25.117188 9.964844 25.242188 9.976562 25.277344 9.964844 C 25.316406 9.953125 25.472656 9.835938 25.472656 9.835938 C 25.472656 9.835938 25.519531 9.898438 25.5625 9.890625 C 25.609375 9.886719 25.839844 9.550781 25.839844 9.550781 C 25.839844 9.550781 25.957031 9.269531 25.929688 9.175781 Z M 19.34375 18.035156 C 19.507812 18.226562 19.535156 18.34375 19.535156 18.34375 C 19.535156 18.34375 19.140625 18.226562 18.933594 18.300781 C 18.726562 18.375 18.449219 18.578125 18.449219 18.578125 C 18.449219 18.578125 17.800781 18.695312 17.507812 18.753906 C 17.507812 18.753906 17.875 18.050781 17.902344 17.84375 C 17.933594 17.636719 18.035156 16.859375 18.035156 16.859375 C 18.035156 16.859375 18.316406 16.429688 18.375 16.328125 C 18.433594 16.226562 18.578125 16.09375 18.578125 16.09375 C 18.578125 16.09375 18.769531 16.917969 18.890625 16.992188 C 18.890625 16.992188 19.183594 17.84375 19.34375 18.035156 Z M 19.34375 18.035156 " fill-opacity="1" fill-rule="nonzero"/></g><g clip-path="url(#a941f0547e)"><g clip-path="url(#0ce688a353)"><g clip-path="url(#e954f83547)"><path stroke-linecap="butt" transform="matrix(-0.00553235, 0.00203824, -0.00203824, -0.00553235, 12.423046, 7.218413)" fill-opacity="1" fill="#000000" fill-rule="nonzero" stroke-linejoin="miter" d="M -1571.196018 654.588714 L -1586.149288 643.431022 L -1564.586476 630.899069 L -1418.129504 626.25276 L -1394.799785 637.672216 Z M -1571.196018 654.588714 " stroke="#000000" stroke-width="2" stroke-opacity="1" stroke-miterlimit="4"/></g></g></g><g clip-path="url(#5aec8ce254)"><g clip-path="url(#6e4f985185)"><g clip-path="url(#f3e038c3f1)"><path stroke-linecap="butt" transform="matrix(-0.00553235, 0.00203824, -0.00203824, -0.00553235, 12.423046, 7.218413)" fill-opacity="1" fill="#000000" fill-rule="nonzero" stroke-linejoin="miter" d="M -1253.316333 819.009247 C -1253.316333 819.009247 -1171.122427 710.900706 -1171.907719 709.19924 C -1172.463968 706.876084 -1168.308464 714.761726 -1168.308464 714.761726 L -1254.363389 825.68423 Z M -1253.316333 819.009247 " stroke="#000000" stroke-width="2" stroke-opacity="1" stroke-miterlimit="4"/></g></g></g><g clip-path="url(#58a58f2143)"><g clip-path="url(#e7ab99e25c)"><g clip-path="url(#ae3ebb7555)"><path stroke-linecap="butt" transform="matrix(-0.00553235, 0.00203824, -0.00203824, -0.00553235, 12.423046, 7.218413)" fill-opacity="1" fill="#000000" fill-rule="nonzero" stroke-linejoin="miter" d="M -1419.405609 942.103777 L -1445.811055 935.199751 L -1445.352967 893.710153 L -1341.759853 798.428049 L -1297.325409 798.558932 L -1305.11289 833.111783 Z M -1419.405609 942.103777 " stroke="#000000" stroke-width="2" stroke-opacity="1" stroke-miterlimit="4"/></g></g></g><g clip-path="url(#c45ccf1076)"><g clip-path="url(#8d7f1af665)"><g clip-path="url(#a819f35837)"><path stroke-linecap="butt" transform="matrix(-0.00553235, 0.00203824, -0.00203824, -0.00553235, 12.423046, 7.218413)" fill-opacity="1" fill="#000000" fill-rule="nonzero" stroke-linejoin="miter" d="M -1554.770326 692.413616 L -1580.194157 680.928718 L -1571.196018 654.588714 L -1408.444235 638.293906 L -1384.165622 639.471844 L -1396.632134 669.476545 Z M -1554.770326 692.413616 " stroke="#000000" stroke-width="2" stroke-opacity="1" stroke-miterlimit="4"/></g></g></g><g clip-path="url(#884cd6d1ff)"><g clip-path="url(#71575437ab)"><g clip-path="url(#fce1aa27ea)"><path stroke-linecap="butt" transform="matrix(-0.00553235, 0.00203824, -0.00203824, -0.00553235, 12.423046, 7.218413)" fill-opacity="1" fill="#000000" fill-rule="nonzero" stroke-linejoin="miter" d="M -1372.549849 972.075759 L -1410.636515 970.047087 L -1409.06593 933.203801 L -1302.331647 831.312156 L -1270.952684 826.633124 Z M -1372.549849 972.075759 " stroke="#000000" stroke-width="2" stroke-opacity="1" stroke-miterlimit="4"/></g></g></g><g clip-path="url(#ba9d7a850d)"><g clip-path="url(#0d58f750af)"><g clip-path="url(#2753f217b4)"><path stroke-linecap="butt" transform="matrix(-0.00553235, 0.00203824, -0.00203824, -0.00553235, 12.423046, 7.218413)" fill-opacity="1" fill="#000000" fill-rule="nonzero" stroke-linejoin="miter" d="M -1519.857551 775.88362 L -1542.369257 758.410871 L -1538.410075 732.33263 L -1378.832181 690.155904 L -1354.880772 688.388997 L -1364.238837 719.538916 Z M -1519.857551 775.88362 " stroke="#000000" stroke-width="2" stroke-opacity="1" stroke-miterlimit="4"/><path stroke-linecap="butt" transform="matrix(-0.00553235, 0.00203824, -0.00203824, -0.00553235, 12.423046, 7.218413)" fill-opacity="1" fill="#000000" fill-rule="nonzero" stroke-linejoin="miter" d="M -1536.217802 735.964606 L -1558.107818 718.7209 L -1554.770326 692.413616 L -1394.570742 650.465933 L -1370.619334 648.699026 L -1379.977398 679.848945 Z M -1536.217802 735.964606 " stroke="#000000" stroke-width="2" stroke-opacity="1" stroke-miterlimit="4"/><path stroke-linecap="butt" transform="matrix(-0.00553235, 0.00203824, -0.00203824, -0.00553235, 12.423046, 7.218413)" fill-opacity="1" fill="#000000" fill-rule="nonzero" stroke-linejoin="miter" d="M -1485.631905 834.38788 L -1521.264533 814.199329 L -1521.166371 777.519645 L -1373.858665 718.819065 L -1343.592199 722.909128 L -1349.972698 759.392489 Z M -1485.631905 834.38788 " stroke="#000000" stroke-width="2" stroke-opacity="1" stroke-miterlimit="4"/></g></g></g><g clip-path="url(#e235f0f94f)"><g clip-path="url(#d7ed535862)"><g clip-path="url(#f3ea64fb65)"><path fill="#000000" d="M 18.113281 0.0078125 L 18.148438 0.269531 L 18.390625 0.253906 L 18.941406 -0.417969 L 18.859375 -0.632812 L 18.585938 -0.652344 Z M 18.113281 0.0078125 " fill-opacity="1" fill-rule="nonzero"/></g></g></g><g clip-path="url(#705b1214e6)"><g clip-path="url(#4bc2f0ced8)"><g clip-path="url(#d2952d0286)"><path stroke-linecap="butt" transform="matrix(-0.00553235, 0.00203824, -0.00203824, -0.00553235, 12.423046, 7.218413)" fill="none" stroke-linejoin="miter" d="M -1328.409888 813.937568 L -1318.659177 770.222976 L -1358.120103 758.509035 L -1485.173818 833.144501 L -1484.715732 872.14734 L -1442.342681 891.288836 Z M -1328.409888 813.937568 " stroke="#000000" stroke-width="2" stroke-opacity="1" stroke-miterlimit="4"/></g></g></g><g clip-path="url(#3a236139d7)"><g clip-path="url(#65ae3df5d6)"><g clip-path="url(#b353d5ac6a)"><path stroke-linecap="butt" transform="matrix(-0.00553235, 0.00203824, -0.00203824, -0.00553235, 12.423046, 7.218413)" fill-opacity="1" fill="#000000" fill-rule="nonzero" stroke-linejoin="miter" d="M -1380.991739 987.323513 L -1345.555434 960.132776 L -1260.318521 841.848158 L -1245.757896 798.493492 L -1357.400256 950.120302 Z M -1380.991739 987.323513 " stroke="#000000" stroke-width="2" stroke-opacity="1" stroke-miterlimit="4"/></g></g></g><g clip-path="url(#0994d6ea76)"><g clip-path="url(#0322b90827)"><g clip-path="url(#8e6485f574)"><path fill="#000000" d="M 19.507812 0.351562 L 19.738281 0.375 L 19.707031 0.578125 L 18.644531 0.996094 Z M 19.507812 0.351562 " fill-opacity="1" fill-rule="nonzero"/></g></g></g><g clip-path="url(#d32875ffe1)"><g clip-path="url(#6944fbfc03)"><g clip-path="url(#0b67af9526)"><path stroke-linecap="butt" transform="matrix(-0.00553235, 0.00203824, -0.00203824, -0.00553235, 12.423046, 7.218413)" fill="none" stroke-linejoin="miter" d="M -1530.197228 677.460346 L -1565.502651 660.21664 L -1548.618871 629.721132 L -1355.011653 625.50019 Z M -1530.197228 677.460346 " stroke="#000000" stroke-width="2" stroke-opacity="1" stroke-miterlimit="4"/></g></g></g><g clip-path="url(#ec6a2214e6)"><g clip-path="url(#e4c15f32f5)"><g clip-path="url(#5effb0d1b5)"><path fill="#000000" d="M 17.355469 0.941406 C 17.195312 1.117188 17.148438 1.285156 17.210938 1.425781 C 17.21875 1.457031 17.230469 1.476562 17.25 1.5 C 17.273438 1.527344 17.304688 1.554688 17.335938 1.578125 C 17.410156 1.632812 17.453125 1.652344 17.511719 1.667969 C 17.644531 1.699219 17.820312 1.621094 17.964844 1.433594 L 17.945312 1.417969 L 17.371094 0.953125 Z M 17.355469 0.941406 " fill-opacity="1" fill-rule="nonzero"/></g></g></g><g clip-path="url(#7811a349f8)"><g clip-path="url(#bcc369f6e2)"><g clip-path="url(#db0d5d3712)"><path stroke-linecap="butt" transform="matrix(-0.00553235, 0.00203824, -0.00203824, -0.00553235, 12.423046, 7.218413)" fill="none" stroke-linejoin="miter" d="M -1153.060709 709.788209 C -1117.264479 691.202964 -1099.955332 667.218836 -1101.656798 641.173315 C -1101.067829 635.741712 -1101.78768 631.946133 -1103.521866 627.070778 C -1105.648699 621.34469 -1109.018911 615.160515 -1112.618166 609.59803 C -1121.223658 596.542549 -1126.917025 590.914622 -1135.326195 584.992211 C -1154.631291 572.231214 -1187.188192 574.358046 -1221.184795 595.724534 L -1218.992521 599.35651 L -1154.860337 707.006967 Z M -1153.060709 709.788209 " stroke="#000000" stroke-width="2" stroke-opacity="1" stroke-miterlimit="4"/></g></g></g><g clip-path="url(#f37e9f424c)"><g clip-path="url(#8894a48e65)"><g clip-path="url(#ba3c654c85)"><path fill="#000000" d="M 18.660156 0.992188 C 18.660156 0.992188 18 1.351562 18.007812 1.359375 C 18.019531 1.371094 18.003906 1.335938 18.003906 1.335938 L 18.644531 0.964844 Z M 18.660156 0.992188 " fill-opacity="1" fill-rule="nonzero"/></g></g></g><g clip-path="url(#510bd96da1)"><g clip-path="url(#2522bc6602)"><g clip-path="url(#73f077db06)"><path stroke-linecap="butt" transform="matrix(-0.00553235, 0.00203824, -0.00203824, -0.00553235, 12.423046, 7.218413)" fill="none" stroke-linejoin="miter" d="M -1357.727455 625.205705 C -1357.727455 625.205705 -1231.589915 606.718623 -1232.375207 605.017157 C -1233.553145 602.464958 -1233.127779 608.976338 -1233.127779 608.976338 L -1356.844002 630.473706 Z M -1357.727455 625.205705 " stroke="#000000" stroke-width="2" stroke-opacity="1" stroke-miterlimit="4"/></g></g></g><g clip-path="url(#06f6c4742f)"><g clip-path="url(#c4636ffc2f)"><g clip-path="url(#04fbccd9e1)"><path stroke-linecap="butt" transform="matrix(-0.00553235, 0.00203824, -0.00203824, -0.00553235, 12.423046, 7.218413)" fill="none" stroke-linejoin="miter" d="M -1210.288868 615.978526 C -1199.491102 605.83517 -1185.06136 593.499541 -1174.394475 587.544409 C -1163.105902 581.818322 -1155.514745 580.37862 -1147.301899 579.167961 " stroke="#000000" stroke-width="2" stroke-opacity="1" stroke-miterlimit="4"/></g></g></g><g clip-path="url(#8753f25eba)"><g clip-path="url(#8679b721f7)"><g clip-path="url(#884de80460)"><path stroke-linecap="butt" transform="matrix(-0.00553235, 0.00203824, -0.00203824, -0.00553235, 12.423046, 7.218413)" fill-opacity="1" fill="#000000" fill-rule="nonzero" stroke-linejoin="miter" d="M -1322.454754 690.450389 C -1322.454754 690.450389 -1206.329687 643.56191 -1207.736669 641.631401 C -1208.292918 639.308245 -1204.137414 647.193886 -1204.137414 647.193886 L -1323.730854 697.747061 Z M -1322.454754 690.450389 " stroke="#000000" stroke-width="2" stroke-opacity="1" stroke-miterlimit="4"/><path stroke-linecap="butt" transform="matrix(-0.00553235, 0.00203824, -0.00203824, -0.00553235, 12.423046, 7.218413)" fill-opacity="1" fill="#000000" fill-rule="nonzero" stroke-linejoin="miter" d="M -1294.249681 740.381878 C -1294.249681 740.381878 -1189.347747 670.294562 -1190.525685 667.742362 C -1191.310977 666.040896 -1187.155473 673.926537 -1187.155473 673.926537 L -1295.525781 747.67855 Z M -1294.249681 740.381878 " stroke="#000000" stroke-width="2" stroke-opacity="1" stroke-miterlimit="4"/></g></g></g><g clip-path="url(#add40ab538)"><g clip-path="url(#dc017472c7)"><g clip-path="url(#f99f9ec63e)"><path stroke-linecap="butt" transform="matrix(-0.00553235, 0.00203824, -0.00203824, -0.00553235, 12.423046, 7.218413)" fill-opacity="1" fill="#000000" fill-rule="nonzero" stroke-linejoin="miter" d="M -1269.971068 768.390629 C -1269.971068 768.390629 -1181.658429 685.836801 -1183.06541 683.906291 C -1183.621659 681.583135 -1179.466155 689.468777 -1179.466155 689.468777 L -1270.625478 775.916344 Z M -1269.971068 768.390629 " stroke="#000000" stroke-width="2" stroke-opacity="1" stroke-miterlimit="4"/></g></g></g><g clip-path="url(#33b0ddd29e)"><g clip-path="url(#e9e850c5b0)"><g clip-path="url(#7cb47450dd)"><path stroke-linecap="butt" transform="matrix(-0.00553235, 0.00203824, -0.00203824, -0.00553235, 12.423046, 7.218413)" fill-opacity="1" fill="#000000" fill-rule="nonzero" stroke-linejoin="miter" d="M -1335.444793 656.71555 C -1335.444793 656.71555 -1218.927081 624.093211 -1219.712373 622.391744 C -1220.890311 619.839545 -1216.113118 627.95423 -1216.113118 627.95423 L -1336.491849 663.390533 Z M -1335.444793 656.71555 " stroke="#000000" stroke-width="2" stroke-opacity="1" stroke-miterlimit="4"/><path fill="#000000" d="M 17.449219 0.828125 C 17.410156 0.886719 17.636719 1.066406 17.734375 1.144531 C 17.832031 1.222656 17.9375 1.355469 18.054688 1.328125 L 17.972656 1.429688 C 17.917969 1.480469 17.773438 1.339844 17.640625 1.238281 C 17.496094 1.121094 17.339844 0.992188 17.351562 0.9375 Z M 17.449219 0.828125 " fill-opacity="1" fill-rule="nonzero"/></g></g></g><g clip-path="url(#52e79a3a72)"><g clip-path="url(#8b742b0615)"><g clip-path="url(#1e4659f4af)"><path stroke-linecap="butt" transform="matrix(-0.00553235, 0.00203824, -0.00203824, -0.00553235, 12.423046, 7.218413)" fill-opacity="1" fill="#000000" fill-rule="nonzero" stroke-linejoin="miter" d="M -1170.827942 667.938686 C -1165.036413 677.133147 -1161.666201 683.317322 -1157.968785 692.446343 C -1161.960686 699.44853 -1166.836041 701.182717 -1171.874999 701.444481 C -1177.110279 694.573175 -1179.564317 685.902242 -1185.126802 676.086091 C -1182.672764 671.341618 -1176.55403 670.065518 -1170.827942 667.938686 Z M -1170.827942 667.938686 " stroke="#000000" stroke-width="2" stroke-opacity="1" stroke-miterlimit="4"/></g></g></g><g clip-path="url(#822e2acbb0)"><g clip-path="url(#2fc8f7cec0)"><g clip-path="url(#d9d89bda7c)"><path fill="#000000" d="M 19.390625 0.230469 L 19.554688 0.3125 L 19.496094 0.476562 L 18.636719 0.988281 L 18.539062 0.996094 L 18.527344 0.832031 Z M 19.390625 0.230469 " fill-opacity="1" fill-rule="nonzero"/></g></g></g><g clip-path="url(#ab38846f2c)"><g clip-path="url(#60b50a5cc1)"><g clip-path="url(#a6e3fce14e)"><path stroke-linecap="butt" transform="matrix(-0.00553235, 0.00203824, -0.00203824, -0.00553235, 12.423046, 7.218413)" fill="none" stroke-linejoin="miter" d="M -1518.646891 703.604028 L -1539.947938 680.928719 L -1521.002766 658.253411 L -1354.226361 627.201656 L -1338.226035 631.684365 L -1345.980795 658.482457 Z M -1518.646891 703.604028 " stroke="#000000" stroke-width="2" stroke-opacity="1" stroke-miterlimit="4"/></g></g></g><g clip-path="url(#0c1288bace)"><g clip-path="url(#f873b86afb)"><g clip-path="url(#a3150773be)"><path stroke-linecap="butt" transform="matrix(-0.00553235, 0.00203824, -0.00203824, -0.00553235, 12.423046, 7.218413)" fill-opacity="1" fill="#000000" fill-rule="nonzero" stroke-linejoin="miter" d="M -1494.302837 742.934073 L -1516.814543 725.461324 L -1512.855362 699.383083 L -1352.655778 657.435401 L -1328.704369 655.668494 L -1338.684123 686.58937 Z M -1494.302837 742.934073 " stroke="#000000" stroke-width="2" stroke-opacity="1" stroke-miterlimit="4"/><path stroke-linecap="butt" transform="matrix(-0.00553235, 0.00203824, -0.00203824, -0.00553235, 12.423046, 7.218413)" fill-opacity="1" fill="#000000" fill-rule="nonzero" stroke-linejoin="miter" d="M -1456.510657 801.340172 L -1492.143285 781.151621 L -1492.045123 744.471937 L -1344.737416 685.771357 L -1314.241908 689.239731 L -1320.85145 726.344781 Z M -1456.510657 801.340172 " stroke="#000000" stroke-width="2" stroke-opacity="1" stroke-miterlimit="4"/></g></g></g><g clip-path="url(#461f9e1049)"><g clip-path="url(#8ac7543302)"><g clip-path="url(#1e065d5993)"><path stroke-linecap="butt" transform="matrix(-0.00553235, 0.00203824, -0.00203824, -0.00553235, 12.423046, 7.218413)" fill-opacity="1" fill="#000000" fill-rule="nonzero" stroke-linejoin="miter" d="M -1290.22506 779.286556 L -1280.474349 735.571964 L -1319.935276 723.858023 L -1447.61068 798.264445 L -1446.530904 837.496328 L -1403.92881 856.016134 Z M -1290.22506 779.286556 " stroke="#000000" stroke-width="2" stroke-opacity="1" stroke-miterlimit="4"/><path stroke-linecap="butt" transform="matrix(-0.00553235, 0.00203824, -0.00203824, -0.00553235, 12.423046, 7.218413)" fill-opacity="1" fill="#000000" fill-rule="nonzero" stroke-linejoin="miter" d="M -1384.623714 909.023349 L -1410.800116 901.497633 L -1410.571072 860.629725 L -1306.977957 765.347621 L -1263.165203 765.24946 L -1270.330994 800.031355 Z M -1384.623714 909.023349 " stroke="#000000" stroke-width="2" stroke-opacity="1" stroke-miterlimit="4"/><path stroke-linecap="butt" transform="matrix(-0.00553235, 0.00203824, -0.00203824, -0.00553235, 12.423046, 7.218413)" fill-opacity="1" fill="#000000" fill-rule="nonzero" stroke-linejoin="miter" d="M -1357.00761 950.971035 L -1386.128857 943.772524 L -1384.329229 906.307547 L -1277.82399 805.037592 L -1246.445027 800.358561 L -1256.293899 827.091212 Z M -1357.00761 950.971035 " stroke="#000000" stroke-width="2" stroke-opacity="1" stroke-miterlimit="4"/></g></g></g><g clip-path="url(#60ccd4dda0)"><g clip-path="url(#c0b43e7817)"><g clip-path="url(#f62f5ccc0c)"><path stroke-linecap="butt" transform="matrix(-0.00553235, 0.00203824, -0.00203824, -0.00553235, 12.423046, 7.218413)" fill-opacity="1" fill="#000000" fill-rule="nonzero" stroke-linejoin="miter" d="M -1239.50828 806.444574 L -1234.043956 799.278784 C -1250.175163 731.907268 -1284.957057 671.079852 -1336.884495 622.293581 L -1345.326384 624.125929 C -1289.963294 677.002263 -1257.177351 741.330773 -1239.50828 806.444574 Z M -1209.569019 767.343574 L -1205.642559 762.435498 C -1224.718611 708.806593 -1253.087287 657.402682 -1292.253728 616.142127 L -1299.844885 617.581829 C -1257.86448 662.703404 -1229.103159 714.958048 -1209.569019 767.343574 Z M -1209.569019 767.343574 " stroke="#000000" stroke-width="2" stroke-opacity="1" stroke-miterlimit="4"/></g></g></g><g fill="#000000" fill-opacity="1"><g transform="translate(7.341264, 27.044642)"><g><path d="M 0.796875 -0.46875 C 0.835938 -0.457031 0.867188 -0.4375 0.890625 -0.40625 C 0.910156 -0.375 0.921875 -0.332031 0.921875 -0.28125 C 0.921875 -0.1875 0.882812 -0.113281 0.8125 -0.0625 C 0.738281 -0.0195312 0.640625 0 0.515625 0 L 0.046875 0 L 0.234375 -0.921875 L 0.65625 -0.921875 C 0.75 -0.921875 0.820312 -0.898438 0.875 -0.859375 C 0.925781 -0.828125 0.953125 -0.78125 0.953125 -0.71875 C 0.953125 -0.65625 0.9375 -0.601562 0.90625 -0.5625 C 0.882812 -0.519531 0.847656 -0.488281 0.796875 -0.46875 Z M 0.375 -0.78125 L 0.328125 -0.53125 L 0.578125 -0.53125 C 0.640625 -0.53125 0.6875 -0.539062 0.71875 -0.5625 C 0.757812 -0.59375 0.78125 -0.632812 0.78125 -0.6875 C 0.78125 -0.75 0.726562 -0.78125 0.625 -0.78125 Z M 0.53125 -0.140625 C 0.601562 -0.140625 0.65625 -0.148438 0.6875 -0.171875 C 0.726562 -0.203125 0.75 -0.238281 0.75 -0.28125 C 0.75 -0.320312 0.734375 -0.351562 0.703125 -0.375 C 0.679688 -0.394531 0.640625 -0.40625 0.578125 -0.40625 L 0.296875 -0.40625 L 0.25 -0.140625 Z M 0.53125 -0.140625 "/></g></g></g><g fill="#000000" fill-opacity="1"><g transform="translate(8.379333, 27.044642)"><g><path d="M 0.703125 -0.21875 L 0.234375 -0.21875 L 0.109375 0 L -0.078125 0 L 0.515625 -0.921875 L 0.6875 -0.921875 L 0.921875 0 L 0.75 0 Z M 0.671875 -0.34375 L 0.578125 -0.75 L 0.328125 -0.34375 Z M 0.671875 -0.34375 "/></g></g></g><g fill="#000000" fill-opacity="1"><g transform="translate(9.401655, 27.044642)"><g><path d="M 0.234375 -0.921875 L 0.609375 -0.921875 C 0.703125 -0.921875 0.78125 -0.90625 0.84375 -0.875 C 0.914062 -0.84375 0.96875 -0.796875 1 -0.734375 C 1.039062 -0.679688 1.0625 -0.617188 1.0625 -0.546875 C 1.0625 -0.429688 1.035156 -0.332031 0.984375 -0.25 C 0.929688 -0.175781 0.863281 -0.113281 0.78125 -0.0625 C 0.695312 -0.0195312 0.597656 0 0.484375 0 L 0.046875 0 Z M 0.484375 -0.140625 C 0.566406 -0.140625 0.632812 -0.15625 0.6875 -0.1875 C 0.75 -0.226562 0.796875 -0.273438 0.828125 -0.328125 C 0.867188 -0.390625 0.890625 -0.457031 0.890625 -0.53125 C 0.890625 -0.601562 0.863281 -0.660156 0.8125 -0.703125 C 0.757812 -0.753906 0.6875 -0.78125 0.59375 -0.78125 L 0.375 -0.78125 L 0.25 -0.140625 Z M 0.484375 -0.140625 "/></g></g></g><g fill="#000000" fill-opacity="1"><g transform="translate(10.525027, 27.044642)"><g><path d="M 1.25 -0.921875 L 1.0625 0 L 0.890625 0 L 1.015625 -0.609375 L 0.625 -0.109375 L 0.546875 -0.109375 L 0.34375 -0.609375 L 0.21875 0 L 0.046875 0 L 0.234375 -0.921875 L 0.375 -0.921875 L 0.625 -0.3125 L 1.09375 -0.921875 Z M 1.25 -0.921875 "/></g></g></g><g fill="#000000" fill-opacity="1"><g transform="translate(11.81769, 27.044642)"><g><path d="M 0.234375 -0.921875 L 0.40625 -0.921875 L 0.21875 0 L 0.046875 0 Z M 0.234375 -0.921875 "/></g></g></g><g fill="#000000" fill-opacity="1"><g transform="translate(12.275706, 27.044642)"><g><path d="M 1.046875 -0.921875 L 0.875 0 L 0.734375 0 L 0.359375 -0.640625 L 0.21875 0 L 0.046875 0 L 0.234375 -0.921875 L 0.375 -0.921875 L 0.75 -0.28125 L 0.890625 -0.921875 Z M 1.046875 -0.921875 "/></g></g></g><g fill="#000000" fill-opacity="1"><g transform="translate(13.378079, 27.044642)"><g><path d="M 0.390625 -0.78125 L 0.09375 -0.78125 L 0.125 -0.921875 L 0.90625 -0.921875 L 0.875 -0.78125 L 0.5625 -0.78125 L 0.40625 0 L 0.234375 0 Z M 0.390625 -0.78125 "/></g></g></g><g fill="#000000" fill-opacity="1"><g transform="translate(14.207487, 27.044642)"><g><path d="M 0.515625 0.015625 C 0.421875 0.015625 0.335938 0 0.265625 -0.03125 C 0.203125 -0.0625 0.15625 -0.109375 0.125 -0.171875 C 0.09375 -0.234375 0.078125 -0.300781 0.078125 -0.375 C 0.078125 -0.476562 0.0976562 -0.570312 0.140625 -0.65625 C 0.191406 -0.738281 0.257812 -0.804688 0.34375 -0.859375 C 0.425781 -0.910156 0.523438 -0.9375 0.640625 -0.9375 C 0.722656 -0.9375 0.796875 -0.914062 0.859375 -0.875 C 0.929688 -0.84375 0.984375 -0.796875 1.015625 -0.734375 C 1.054688 -0.679688 1.078125 -0.617188 1.078125 -0.546875 C 1.078125 -0.441406 1.050781 -0.34375 1 -0.25 C 0.957031 -0.164062 0.890625 -0.0976562 0.796875 -0.046875 C 0.710938 -0.00390625 0.617188 0.015625 0.515625 0.015625 Z M 0.53125 -0.140625 C 0.601562 -0.140625 0.664062 -0.15625 0.71875 -0.1875 C 0.78125 -0.226562 0.828125 -0.273438 0.859375 -0.328125 C 0.890625 -0.390625 0.90625 -0.457031 0.90625 -0.53125 C 0.90625 -0.601562 0.878906 -0.660156 0.828125 -0.703125 C 0.773438 -0.753906 0.707031 -0.78125 0.625 -0.78125 C 0.550781 -0.78125 0.484375 -0.757812 0.421875 -0.71875 C 0.367188 -0.6875 0.328125 -0.640625 0.296875 -0.578125 C 0.265625 -0.523438 0.25 -0.460938 0.25 -0.390625 C 0.25 -0.316406 0.269531 -0.253906 0.3125 -0.203125 C 0.363281 -0.160156 0.4375 -0.140625 0.53125 -0.140625 Z M 0.53125 -0.140625 "/></g></g></g><g fill="#000000" fill-opacity="1"><g transform="translate(15.351856, 27.044642)"><g><path d="M 1.046875 -0.921875 L 0.875 0 L 0.734375 0 L 0.359375 -0.640625 L 0.21875 0 L 0.046875 0 L 0.234375 -0.921875 L 0.375 -0.921875 L 0.75 -0.28125 L 0.890625 -0.921875 Z M 1.046875 -0.921875 "/></g></g></g><g fill="#000000" fill-opacity="1"><g transform="translate(16.45423, 27.044642)"><g/></g></g><g fill="#000000" fill-opacity="1"><g transform="translate(16.855814, 27.044642)"><g><path d="M 0.515625 0.015625 C 0.421875 0.015625 0.34375 0 0.28125 -0.03125 C 0.21875 -0.0625 0.164062 -0.109375 0.125 -0.171875 C 0.09375 -0.234375 0.078125 -0.300781 0.078125 -0.375 C 0.078125 -0.476562 0.0976562 -0.570312 0.140625 -0.65625 C 0.191406 -0.738281 0.257812 -0.804688 0.34375 -0.859375 C 0.425781 -0.910156 0.523438 -0.9375 0.640625 -0.9375 C 0.722656 -0.9375 0.789062 -0.921875 0.84375 -0.890625 C 0.90625 -0.867188 0.953125 -0.832031 0.984375 -0.78125 L 0.859375 -0.671875 C 0.804688 -0.742188 0.726562 -0.78125 0.625 -0.78125 C 0.550781 -0.78125 0.484375 -0.757812 0.421875 -0.71875 C 0.367188 -0.6875 0.328125 -0.640625 0.296875 -0.578125 C 0.265625 -0.523438 0.25 -0.460938 0.25 -0.390625 C 0.25 -0.304688 0.269531 -0.242188 0.3125 -0.203125 C 0.363281 -0.160156 0.4375 -0.140625 0.53125 -0.140625 C 0.632812 -0.140625 0.722656 -0.175781 0.796875 -0.25 L 0.890625 -0.140625 C 0.847656 -0.0859375 0.796875 -0.046875 0.734375 -0.015625 C 0.671875 0.00390625 0.597656 0.015625 0.515625 0.015625 Z M 0.515625 0.015625 "/></g></g></g><g fill="#000000" fill-opacity="1"><g transform="translate(17.849264, 27.044642)"><g><path d="M 0.375 -0.78125 L 0.328125 -0.53125 L 0.78125 -0.53125 L 0.75 -0.390625 L 0.296875 -0.390625 L 0.25 -0.140625 L 0.765625 -0.140625 L 0.75 0 L 0.046875 0 L 0.234375 -0.921875 L 0.90625 -0.921875 L 0.875 -0.78125 Z M 0.375 -0.78125 "/></g></g></g><g fill="#000000" fill-opacity="1"><g transform="translate(18.767911, 27.044642)"><g><path d="M 1.046875 -0.921875 L 0.875 0 L 0.734375 0 L 0.359375 -0.640625 L 0.21875 0 L 0.046875 0 L 0.234375 -0.921875 L 0.375 -0.921875 L 0.75 -0.28125 L 0.890625 -0.921875 Z M 1.046875 -0.921875 "/></g></g></g><g fill="#000000" fill-opacity="1"><g transform="translate(19.870285, 27.044642)"><g><path d="M 0.390625 -0.78125 L 0.09375 -0.78125 L 0.125 -0.921875 L 0.90625 -0.921875 L 0.875 -0.78125 L 0.5625 -0.78125 L 0.40625 0 L 0.234375 0 Z M 0.390625 -0.78125 "/></g></g></g><g fill="#000000" fill-opacity="1"><g transform="translate(20.699691, 27.044642)"><g><path d="M 0.375 -0.78125 L 0.328125 -0.53125 L 0.78125 -0.53125 L 0.75 -0.390625 L 0.296875 -0.390625 L 0.25 -0.140625 L 0.765625 -0.140625 L 0.75 0 L 0.046875 0 L 0.234375 -0.921875 L 0.90625 -0.921875 L 0.875 -0.78125 Z M 0.375 -0.78125 "/></g></g></g><g fill="#000000" fill-opacity="1"><g transform="translate(21.618338, 27.044642)"><g><path d="M 0.9375 -0.640625 C 0.9375 -0.554688 0.910156 -0.484375 0.859375 -0.421875 C 0.816406 -0.359375 0.753906 -0.316406 0.671875 -0.296875 L 0.84375 0 L 0.65625 0 L 0.5 -0.265625 L 0.28125 -0.265625 L 0.21875 0 L 0.046875 0 L 0.234375 -0.921875 L 0.59375 -0.921875 C 0.707031 -0.921875 0.789062 -0.894531 0.84375 -0.84375 C 0.90625 -0.789062 0.9375 -0.722656 0.9375 -0.640625 Z M 0.515625 -0.40625 C 0.597656 -0.40625 0.660156 -0.421875 0.703125 -0.453125 C 0.742188 -0.492188 0.765625 -0.550781 0.765625 -0.625 C 0.765625 -0.675781 0.75 -0.710938 0.71875 -0.734375 C 0.6875 -0.765625 0.640625 -0.78125 0.578125 -0.78125 L 0.375 -0.78125 L 0.3125 -0.40625 Z M 0.515625 -0.40625 "/></g></g></g></svg>